<svg width="1349" height="365" viewBox="0 0 1349 365" fill="none" xmlns="http://www.w3.org/2000/svg">
<path fill-rule="evenodd" clip-rule="evenodd" d="M1351 0L1294.54 54C1238.09 108 1124.17 216 1011.25 243C897.331 270 784.417 216 670.496 223C557.583 230 444.669 297 330.748 311C217.835 324 103.913 284 47.4567 264L-9 243V365H47.4567C103.913 365 217.835 365 330.748 365C444.669 365 557.583 365 670.496 365C784.417 365 897.331 365 1011.25 365C1124.17 365 1238.09 365 1294.54 365H1351V0Z" fill="#2C9449"/>
</svg>
